<svg width="126" height="144" viewBox="0 0 126 144" fill="none" xmlns="http://www.w3.org/2000/svg">
<mask id="mask0_234_13" style="mask-type:luminance" maskUnits="userSpaceOnUse" x="0" y="0" width="126" height="144">
<path d="M126 0H0V144H126V0Z" fill="white"/>
</mask>
<g mask="url(#mask0_234_13)">
<path d="M62.5043 0.000444699C62.1088 -0.00773746 61.7193 0.097139 61.3814 0.302745L59.4381 1.46876C59.1784 1.62342 58.9526 1.82892 58.7742 2.07292C58.5959 2.31693 58.4686 2.59443 58.4001 2.8888C58.3315 3.18317 58.3231 3.48835 58.3753 3.78605C58.4275 4.08375 58.5393 4.36785 58.7039 4.62132L86.1269 46.0797C86.3182 46.3484 86.5625 46.5751 86.8447 46.746C87.1269 46.9168 87.4411 47.0281 87.7679 47.0729C88.0884 47.0948 88.4101 47.0526 88.7141 46.9488C89.0181 46.845 89.2984 46.6817 89.5386 46.4683L108.411 28.7622C108.679 28.5308 108.883 28.2347 109.004 27.902C109.125 27.5694 109.158 27.2114 109.102 26.862C109.07 26.5098 108.951 26.1711 108.755 25.8769C108.559 25.5827 108.292 25.3423 107.979 25.1777L63.6271 0.475488C63.2976 0.227234 62.9119 0.0640695 62.5043 0.000444699ZM47.562 7.38521C47.1671 7.41826 46.7911 7.56865 46.4823 7.81707L0.921344 41.9338C0.60001 42.1779 0.347519 42.5013 0.188557 42.8722C0.0295949 43.2431 -0.0303983 43.6489 0.014443 44.0499L5.54222 90.2587C5.67178 91.2952 6.49231 92.1157 7.52877 92.2453L43.7184 97.298C44.1017 97.3585 44.4941 97.3187 44.8573 97.1825C45.2206 97.0463 45.5424 96.8183 45.7914 96.5206L83.7517 52.2984C84.1159 51.8876 84.3171 51.3576 84.3171 50.8085C84.3171 50.2594 84.1159 49.7294 83.7517 49.3186L49.5917 8.07618C49.3355 7.80404 49.0166 7.59878 48.6628 7.47833C48.3089 7.35788 47.931 7.32591 47.562 7.38521ZM109.577 33.6853C109.084 33.7711 108.64 34.0318 108.324 34.4195L57.9266 96.9525C57.6918 97.2289 57.5391 97.5655 57.4857 97.9242C57.4322 98.2829 57.4802 98.6494 57.6243 98.9822C57.7645 99.3162 57.9899 99.6075 58.2778 99.8272C58.5657 100.047 58.9062 100.187 59.2653 100.235L114.111 106.065C114.373 106.101 114.639 106.082 114.892 106.007C115.145 105.933 115.38 105.805 115.58 105.633L125.037 98.0753C125.313 97.8582 125.526 97.572 125.655 97.2458C125.784 96.9196 125.824 96.5651 125.771 96.2184L116.789 37.313C116.735 36.9616 116.591 36.63 116.372 36.3502C116.152 36.0704 115.865 35.8517 115.536 35.7151L110.613 33.8149C110.284 33.6875 109.928 33.6431 109.577 33.6853ZM10.3358 94.5773C10.0287 94.5764 9.72811 94.6666 9.47213 94.8364C9.2977 94.9702 9.15362 95.1394 9.0494 95.333C8.94518 95.5265 8.8832 95.74 8.86753 95.9592L8.39248 108.915C8.37326 109.163 8.4237 109.412 8.53814 109.633C8.65258 109.855 8.82647 110.04 9.04027 110.167L62.4179 143.809C62.6345 143.934 62.8803 144 63.1305 144C63.3806 144 63.6264 143.934 63.843 143.809L100.292 124.591C100.531 124.455 100.726 124.252 100.852 124.007C100.979 123.762 101.031 123.486 101.004 123.212C100.976 122.937 100.87 122.677 100.698 122.462C100.525 122.247 100.294 122.087 100.033 122L10.7245 94.6637L10.3358 94.5773Z" fill="#06D6A0"/>
</g>
</svg>
